{"asset": {"version": "2.0", "generator": "veteraphone/tools"}, "scene": 0, "scenes": [{"nodes": [0]}], "nodes": [{"mesh": 0, "name": "TerrainPlane"}], "meshes": [{"name": "TerrainPlane", "primitives": [{"attributes": {"POSITION": 0, "TEXCOORD_0": 1}, "indices": 2, "mode": 4}]}], "accessors": [{"bufferView": 0, "componentType": 5126, "count": 659075, "type": "VEC3", "min": [-1.0, 0.0, -0.6267856955528259], "max": [1.0, 0.0, 0.6267856955528259]}, {"bufferView": 1, "componentType": 5126, "count": 659075, "type": "VEC2"}, {"bufferView": 2, "componentType": 5125, "count": 3944448, "type": "SCALAR"}], "bufferViews": [{"buffer": 0, "byteOffset": 0, "byteLength": 7908900, "target": 34962}, {"buffer": 0, "byteOffset": 7908900, "byteLength": 5272600, "target": 34962}, {"buffer": 0, "byteOffset": 13181500, "byteLength": 15777792, "target": 34963}], "buffers": [{"uri": "terrain_plane.bin", "byteLength": 28959292}]}